<svg width="945" height="945" viewBox="0 0 945 945" fill="none" xmlns="http://www.w3.org/2000/svg">
<path d="M213.665 317.993L216.726 324.173L223.568 325.175L218.616 329.994L219.788 336.798L213.665 333.585L207.56 336.798L208.732 329.994L203.78 325.175L210.622 324.173L213.665 317.993Z" fill="#EBEBEB"/>
<path d="M825.363 609.487L828.425 615.687L835.267 616.688L830.315 621.489L831.487 628.312L825.363 625.099L819.258 628.312L820.43 621.489L815.478 616.688L822.32 615.687L825.363 609.487Z" fill="#F5F5F5"/>
<path d="M704.214 789.207L707.276 795.388L714.099 796.389L709.147 801.209L710.319 808.013L704.214 804.8L698.109 808.013L699.262 801.209L694.329 796.389L701.152 795.388L704.214 789.207Z" fill="#F5F5F5"/>
<path d="M427.027 208.184L428.161 210.489L430.712 210.867C430.855 210.886 430.989 210.945 431.099 211.037C431.209 211.129 431.291 211.25 431.334 211.387C431.378 211.524 431.382 211.671 431.345 211.809C431.309 211.948 431.233 212.074 431.128 212.171L429.238 213.967L429.673 216.5C429.695 216.641 429.678 216.785 429.623 216.917C429.569 217.049 429.479 217.163 429.364 217.247C429.248 217.331 429.112 217.382 428.97 217.393C428.828 217.405 428.685 217.377 428.558 217.312L426.29 216.103L424.022 217.312C423.894 217.377 423.751 217.405 423.609 217.393C423.467 217.382 423.331 217.331 423.215 217.247C423.1 217.163 423.01 217.049 422.956 216.917C422.901 216.785 422.884 216.641 422.906 216.5L423.322 213.967L421.432 212.171C421.326 212.073 421.251 211.945 421.216 211.805C421.18 211.665 421.185 211.517 421.231 211.38C421.277 211.243 421.361 211.121 421.474 211.03C421.587 210.94 421.723 210.883 421.867 210.867L424.4 210.489L425.534 208.184C425.579 208.02 425.676 207.877 425.811 207.774C425.946 207.672 426.111 207.616 426.28 207.616C426.449 207.616 426.614 207.672 426.749 207.774C426.884 207.877 426.981 208.02 427.027 208.184Z" fill="#EBEBEB"/>
<path d="M114.874 759.78L116.008 762.067L118.541 762.445C118.685 762.465 118.82 762.525 118.931 762.618C119.043 762.71 119.126 762.833 119.171 762.971C119.217 763.109 119.222 763.256 119.188 763.397C119.153 763.538 119.08 763.667 118.976 763.768L117.086 765.545L117.52 768.077C117.543 768.218 117.526 768.363 117.471 768.494C117.417 768.626 117.327 768.741 117.211 768.825C117.096 768.909 116.96 768.959 116.817 768.971C116.675 768.982 116.533 768.954 116.405 768.89L114.137 767.699L111.869 768.89C111.742 768.954 111.599 768.982 111.457 768.971C111.315 768.959 111.178 768.909 111.063 768.825C110.948 768.741 110.858 768.626 110.803 768.494C110.749 768.363 110.732 768.218 110.754 768.077L111.189 765.545L109.299 763.768C109.195 763.668 109.121 763.541 109.086 763.402C109.05 763.262 109.054 763.115 109.097 762.978C109.141 762.84 109.221 762.718 109.33 762.624C109.439 762.53 109.572 762.468 109.715 762.445L112.247 762.067L113.4 759.78C113.451 759.624 113.549 759.489 113.682 759.392C113.814 759.296 113.973 759.244 114.137 759.244C114.301 759.244 114.46 759.296 114.593 759.392C114.725 759.489 114.824 759.624 114.874 759.78Z" fill="#F5F5F5"/>
<path d="M165.848 183.897L166.982 186.203L169.533 186.562C169.675 186.585 169.808 186.647 169.917 186.741C170.026 186.835 170.107 186.957 170.15 187.095C170.193 187.232 170.197 187.379 170.162 187.519C170.126 187.658 170.053 187.785 169.949 187.885L168.059 189.775L168.494 192.289C168.524 192.431 168.512 192.58 168.46 192.716C168.408 192.852 168.317 192.97 168.199 193.056C168.081 193.142 167.941 193.192 167.796 193.2C167.65 193.208 167.505 193.174 167.378 193.101L165.11 191.911L162.842 193.101C162.716 193.174 162.571 193.208 162.425 193.2C162.28 193.192 162.14 193.142 162.022 193.056C161.904 192.97 161.813 192.852 161.761 192.716C161.709 192.58 161.697 192.431 161.727 192.289L162.143 189.775L160.253 187.885C160.149 187.784 160.076 187.655 160.041 187.514C160.006 187.373 160.012 187.226 160.057 187.088C160.103 186.95 160.186 186.827 160.297 186.734C160.409 186.642 160.544 186.582 160.688 186.562L163.22 186.203L164.43 183.897C164.491 183.76 164.59 183.643 164.716 183.561C164.842 183.479 164.989 183.435 165.139 183.435C165.289 183.435 165.436 183.479 165.562 183.561C165.688 183.643 165.787 183.76 165.848 183.897Z" fill="#EBEBEB"/>
<path d="M162.786 639.425C162.789 639.923 162.645 640.411 162.371 640.827C162.097 641.242 161.706 641.568 161.247 641.761C160.788 641.954 160.282 642.006 159.793 641.911C159.304 641.817 158.855 641.579 158.501 641.228C158.148 640.877 157.907 640.429 157.808 639.941C157.71 639.453 157.758 638.947 157.948 638.486C158.138 638.026 158.46 637.632 158.874 637.355C159.287 637.078 159.774 636.93 160.272 636.93C160.935 636.93 161.572 637.192 162.043 637.66C162.514 638.127 162.781 638.761 162.786 639.425Z" fill="#EBEBEB"/>
<path d="M521.016 324.872C521.02 325.37 520.876 325.858 520.602 326.274C520.328 326.69 519.937 327.015 519.478 327.208C519.019 327.401 518.513 327.454 518.024 327.359C517.535 327.264 517.085 327.026 516.732 326.675C516.379 326.324 516.137 325.877 516.039 325.388C515.94 324.9 515.989 324.394 516.179 323.934C516.368 323.473 516.69 323.079 517.104 322.802C517.518 322.525 518.005 322.377 518.503 322.377C518.832 322.375 519.158 322.438 519.463 322.562C519.768 322.686 520.045 322.869 520.279 323.101C520.513 323.333 520.698 323.609 520.825 323.913C520.951 324.217 521.016 324.543 521.016 324.872Z" fill="#EBEBEB"/>
<path d="M390.682 185.976C390.682 186.473 390.535 186.959 390.258 187.373C389.982 187.786 389.589 188.108 389.13 188.298C388.671 188.489 388.165 188.538 387.678 188.442C387.19 188.345 386.742 188.105 386.391 187.754C386.039 187.402 385.8 186.954 385.703 186.467C385.606 185.979 385.656 185.473 385.846 185.014C386.036 184.555 386.358 184.162 386.772 183.886C387.185 183.61 387.671 183.462 388.168 183.462C388.833 183.467 389.47 183.734 389.94 184.204C390.411 184.674 390.677 185.311 390.682 185.976Z" fill="#F5F5F5"/>
<path d="M394.663 798.608C402.13 796.845 406.754 789.363 404.992 781.897C403.229 774.43 395.748 769.805 388.281 771.568C380.814 773.33 376.189 780.812 377.952 788.279C379.714 795.745 387.196 800.37 394.663 798.608Z" fill="#F0F0F0"/>
<path d="M386.694 776.96C383.848 776.954 381.075 777.855 378.775 779.531C377.6 782.225 377.312 785.223 377.952 788.092C378.591 790.961 380.125 793.553 382.333 795.493C384.541 797.434 387.308 798.623 390.235 798.89C393.162 799.156 396.098 798.486 398.62 796.975C399.736 794.911 400.297 792.591 400.248 790.245C400.198 787.898 399.54 785.605 398.338 783.589C397.136 781.573 395.431 779.904 393.389 778.746C391.348 777.587 389.041 776.978 386.694 776.979V776.96Z" fill="#E6E6E6"/>
<path d="M279.115 543.639H164.109V491.721L279.115 354.999H334.152V494.67H362.672V543.639H334.152V586.127H279.115V543.639ZM279.115 494.67V423.152L218.333 494.67H279.115Z" fill="#0152A8"/>
<path d="M382.347 471.574C382.347 428.369 390.121 398.129 405.67 380.854C421.218 363.579 444.912 354.948 476.752 354.961C492.036 354.961 504.592 356.851 514.42 360.631C523.348 363.848 531.523 368.859 538.442 375.354C544.274 380.922 549.214 387.354 553.09 394.424C556.925 401.806 559.814 409.642 561.689 417.747C565.962 435.061 568.095 452.833 568.039 470.667C568.039 511.894 561.065 542.065 547.117 561.179C533.169 580.293 509.147 589.856 475.051 589.869C455.925 589.869 440.471 586.82 428.69 580.721C416.814 574.524 406.811 565.265 399.716 553.902C394.235 545.536 389.97 534.089 386.921 519.561C383.755 503.764 382.223 487.684 382.347 471.574ZM444.982 471.725C444.982 500.705 447.533 520.468 452.636 531.014C457.739 541.561 465.154 546.859 474.881 546.909C477.968 546.944 481.031 546.365 483.893 545.207C486.754 544.049 489.357 542.334 491.551 540.162C496.264 535.664 499.729 528.557 501.946 518.843C504.164 509.128 505.273 494.008 505.273 473.483C505.273 443.318 502.715 423.039 497.599 412.644C492.484 402.249 484.81 397.058 474.579 397.07C464.146 397.07 456.586 402.368 451.899 412.965C447.212 423.562 444.906 443.148 444.982 471.725Z" fill="#0152A8"/>
<path d="M702.588 543.64H587.582V491.721L702.588 354.999H757.625V494.67H786.24V543.64H757.625V586.127H702.588V543.64ZM702.588 494.67V423.152L641.825 494.67H702.588Z" fill="#0152A8"/>
<g opacity="0.3">
<path d="M379.89 275.222C379.89 275.922 379.682 276.606 379.293 277.187C378.904 277.769 378.351 278.222 377.704 278.489C377.057 278.756 376.345 278.825 375.659 278.687C374.973 278.549 374.343 278.21 373.85 277.714C373.356 277.218 373.021 276.586 372.887 275.9C372.753 275.213 372.825 274.502 373.096 273.856C373.366 273.211 373.822 272.66 374.406 272.274C374.99 271.888 375.675 271.684 376.374 271.687C376.838 271.687 377.296 271.779 377.724 271.957C378.152 272.135 378.54 272.395 378.867 272.724C379.194 273.052 379.452 273.442 379.628 273.871C379.803 274.299 379.892 274.758 379.89 275.222Z" fill="#0152A8"/>
<path d="M137.913 410.98C139.291 410.98 140.408 409.863 140.408 408.486C140.408 407.108 139.291 405.991 137.913 405.991C136.535 405.991 135.418 407.108 135.418 408.486C135.418 409.863 136.535 410.98 137.913 410.98Z" fill="#0152A8"/>
<path d="M550.085 775.316C552.057 775.316 553.657 773.717 553.657 771.744C553.657 769.771 552.057 768.172 550.085 768.172C548.112 768.172 546.512 769.771 546.512 771.744C546.512 773.717 548.112 775.316 550.085 775.316Z" fill="#0152A8"/>
<path d="M635.985 629.975C637.363 629.975 638.48 628.858 638.48 627.48C638.48 626.102 637.363 624.985 635.985 624.985C634.607 624.985 633.49 626.102 633.49 627.48C633.49 628.858 634.607 629.975 635.985 629.975Z" fill="#0152A8"/>
<path d="M801.681 180.722C801.681 181.215 801.535 181.697 801.261 182.108C800.987 182.518 800.597 182.838 800.141 183.027C799.685 183.215 799.184 183.265 798.7 183.169C798.216 183.072 797.771 182.835 797.422 182.486C797.073 182.137 796.836 181.692 796.74 181.208C796.643 180.724 796.693 180.223 796.882 179.767C797.07 179.311 797.39 178.922 797.8 178.647C798.211 178.373 798.693 178.227 799.186 178.227C799.848 178.227 800.483 178.49 800.951 178.958C801.418 179.426 801.681 180.06 801.681 180.722Z" fill="#0152A8"/>
<path d="M326.497 130.41C326.497 130.903 326.351 131.386 326.077 131.796C325.803 132.206 325.413 132.526 324.957 132.715C324.501 132.904 324 132.953 323.516 132.857C323.032 132.761 322.587 132.523 322.239 132.174C321.89 131.825 321.652 131.381 321.556 130.897C321.459 130.413 321.509 129.911 321.698 129.455C321.887 128.999 322.206 128.61 322.617 128.336C323.027 128.061 323.509 127.915 324.003 127.915C324.663 127.92 325.294 128.185 325.761 128.651C326.228 129.118 326.492 129.75 326.497 130.41Z" fill="#0152A8"/>
<path d="M524.853 261.311C526.231 261.311 527.348 260.194 527.348 258.817C527.348 257.439 526.231 256.322 524.853 256.322C523.475 256.322 522.358 257.439 522.358 258.817C522.358 260.194 523.475 261.311 524.853 261.311Z" fill="#0152A8"/>
</g>
<path d="M266.925 261.33C289.795 261.33 308.335 242.79 308.335 219.92C308.335 197.05 289.795 178.51 266.925 178.51C244.055 178.51 225.515 197.05 225.515 219.92C225.515 242.79 244.055 261.33 266.925 261.33Z" fill="#0152A8"/>
<path opacity="0.7" d="M266.925 261.33C289.795 261.33 308.335 242.79 308.335 219.92C308.335 197.05 289.795 178.51 266.925 178.51C244.055 178.51 225.515 197.05 225.515 219.92C225.515 242.79 244.055 261.33 266.925 261.33Z" fill="white"/>
<path opacity="0.2" d="M252.655 188.679C247.016 188.661 241.432 189.8 236.25 192.024C229.881 199.024 226.1 207.994 225.538 217.442C224.975 226.89 227.664 236.245 233.158 243.952C238.651 251.659 246.618 257.252 255.732 259.802C264.847 262.352 274.559 261.704 283.254 257.966C288.645 252.025 292.195 244.647 293.473 236.727C294.751 228.807 293.703 220.687 290.454 213.351C287.206 206.016 281.898 199.782 275.175 195.405C268.451 191.029 260.602 188.699 252.58 188.698L252.655 188.679Z" fill="#0152A8"/>
<path opacity="0.2" d="M248.535 199.622C248.535 200.369 248.313 201.1 247.898 201.722C247.483 202.343 246.892 202.828 246.202 203.114C245.511 203.4 244.751 203.475 244.018 203.329C243.284 203.183 242.611 202.823 242.082 202.295C241.553 201.766 241.193 201.092 241.048 200.359C240.902 199.626 240.977 198.866 241.263 198.175C241.549 197.485 242.033 196.894 242.655 196.479C243.277 196.063 244.007 195.842 244.755 195.842C245.757 195.842 246.719 196.24 247.428 196.949C248.137 197.658 248.535 198.619 248.535 199.622Z" fill="#0152A8"/>
<path opacity="0.2" d="M293.063 195.842C293.063 196.589 292.842 197.32 292.426 197.942C292.011 198.563 291.421 199.048 290.73 199.334C290.039 199.62 289.279 199.695 288.546 199.549C287.813 199.403 287.139 199.043 286.611 198.515C286.082 197.986 285.722 197.312 285.576 196.579C285.43 195.846 285.505 195.086 285.791 194.395C286.077 193.705 286.562 193.114 287.183 192.699C287.805 192.283 288.536 192.062 289.283 192.062C290.286 192.062 291.247 192.46 291.956 193.169C292.665 193.878 293.063 194.839 293.063 195.842Z" fill="#0152A8"/>
<path opacity="0.2" d="M285.503 222.831C285.503 224.057 285.14 225.256 284.459 226.275C283.777 227.294 282.809 228.089 281.677 228.558C280.544 229.027 279.297 229.15 278.095 228.911C276.892 228.672 275.788 228.081 274.921 227.214C274.054 226.347 273.463 225.243 273.224 224.04C272.985 222.838 273.108 221.591 273.577 220.459C274.046 219.326 274.841 218.358 275.86 217.676C276.88 216.995 278.078 216.632 279.304 216.632C280.948 216.632 282.525 217.285 283.688 218.447C284.85 219.61 285.503 221.187 285.503 222.831Z" fill="#0152A8"/>
<path opacity="0.2" d="M265.81 240.502C265.81 242.14 265.324 243.74 264.414 245.102C263.505 246.463 262.212 247.524 260.699 248.15C259.187 248.777 257.522 248.941 255.916 248.622C254.311 248.302 252.836 247.514 251.678 246.356C250.52 245.198 249.732 243.723 249.412 242.117C249.093 240.512 249.257 238.847 249.883 237.335C250.51 235.822 251.571 234.529 252.932 233.619C254.294 232.71 255.894 232.224 257.531 232.224C259.727 232.224 261.832 233.096 263.385 234.649C264.937 236.201 265.81 238.307 265.81 240.502Z" fill="#0152A8"/>
<path d="M757.7 719.421C762.311 699.885 750.212 680.31 730.676 675.699C711.14 671.089 691.566 683.188 686.955 702.723C682.344 722.259 694.443 741.834 713.979 746.445C733.515 751.056 753.089 738.957 757.7 719.421Z" fill="#0152A8"/>
<path opacity="0.3" d="M757.7 719.421C762.311 699.885 750.212 680.31 730.676 675.699C711.14 671.089 691.566 683.188 686.955 702.723C682.344 722.259 694.443 741.834 713.979 746.445C733.515 751.056 753.089 738.957 757.7 719.421Z" fill="white"/>
<path opacity="0.4" d="M745.284 682.933C737.227 680.501 728.576 680.942 720.808 684.181C713.04 687.419 706.638 693.255 702.695 700.69C698.752 708.125 697.513 716.698 699.19 724.946C700.866 733.193 705.354 740.602 711.887 745.907C715.276 746.937 718.798 747.459 722.339 747.457C729.842 747.456 737.161 745.132 743.291 740.804C749.421 736.477 754.061 730.359 756.575 723.29C759.089 716.22 759.353 708.546 757.332 701.32C755.31 694.094 751.101 687.671 745.284 682.933Z" fill="#0152A8"/>
<path d="M687.639 721.98C648.837 740.237 677.773 754.318 732.451 734.662C783.084 716.461 802.381 693.517 757.021 700.642C759.459 710.186 696.049 734.889 687.639 721.98Z" fill="#0152A8"/>
<path opacity="0.2" d="M744.849 354.999C694.027 389.34 628.236 434.7 610.073 543.64H606.199C623.87 435.91 687.261 389.472 738.102 354.999H744.849Z" fill="black"/>
<path d="M481.95 696.03C449.82 696.03 418.049 681.534 402.57 657.871C393.026 643.243 381.931 612.606 414.968 571.725L417.898 574.106C394.538 603.023 390.228 632.035 405.745 655.811C424.645 684.728 469.23 699.281 507.295 688.924C546.286 678.321 569.948 644.414 572.235 595.898C580.041 429.937 668.21 378.813 732.583 341.485C772.594 318.295 801.492 301.55 795.142 266.188C794.254 261.293 792.307 257.909 789.151 255.83C780.929 250.406 764.864 254.167 746.267 258.495C709.771 267 659.799 278.643 630.032 228.01L633.301 226.12C661.651 274.371 708.089 263.542 745.416 254.848C764.864 250.331 781.647 246.418 791.23 252.712C795.293 255.377 797.788 259.592 798.79 265.564C805.613 303.515 774.22 321.735 734.435 344.793C670.799 381.686 583.67 432.205 575.959 596.163C573.577 646.437 548.894 681.61 508.221 692.666C499.652 694.948 490.818 696.079 481.95 696.03Z" fill="#0152A8"/>
<path opacity="0.2" d="M481.95 696.03C449.82 696.03 418.049 681.534 402.57 657.871C393.026 643.243 381.931 612.606 414.968 571.725L417.898 574.106C394.538 603.023 390.228 632.035 405.745 655.811C424.645 684.728 469.23 699.281 507.295 688.924C546.286 678.321 569.948 644.414 572.235 595.898C580.041 429.937 668.21 378.813 732.583 341.485C772.594 318.295 801.492 301.55 795.142 266.188C794.254 261.293 792.307 257.909 789.151 255.83C780.929 250.406 764.864 254.167 746.267 258.495C709.771 267 659.799 278.643 630.032 228.01L633.301 226.12C661.651 274.371 708.089 263.542 745.416 254.848C764.864 250.331 781.647 246.418 791.23 252.712C795.293 255.377 797.788 259.592 798.79 265.564C805.613 303.515 774.22 321.735 734.435 344.793C670.799 381.686 583.67 432.205 575.959 596.163C573.577 646.437 548.894 681.61 508.221 692.666C499.652 694.948 490.818 696.079 481.95 696.03Z" fill="white"/>
<path d="M591.116 183.33C599.825 183.38 608.477 184.737 616.783 187.356C616.783 187.356 637.573 222.831 640.03 230.958C639.16 238.972 625.647 252.107 625.647 252.107L591.116 183.33Z" fill="#0152A8"/>
<path opacity="0.3" d="M591.116 183.33C599.825 183.38 608.477 184.737 616.783 187.356C616.783 187.356 637.573 222.831 640.03 230.958C639.16 238.972 625.647 252.107 625.647 252.107L591.116 183.33Z" fill="white"/>
<path d="M652.693 355.566C644.687 345.776 637.385 335.431 630.844 324.607C629.257 321.873 627.751 319.089 626.327 316.254C625.514 314.647 624.74 313.041 623.984 311.415C622.991 309.834 622.222 308.123 621.697 306.331C619.429 282.385 627.631 264.751 619.807 245.53L588.659 257.702C588.659 257.702 591.305 291.948 597.353 312.512C601.133 325.231 609.601 336.231 617.784 346.418C620.336 349.593 622.793 352.863 625.344 356.057C627.896 359.251 630.466 361.84 632.904 364.846C636.59 369.4 637.799 373.766 635.021 379.134L634.549 379.984C633.755 381.383 637.459 382.971 639.803 379.984C643.583 375.108 643.054 375.411 646.342 371.253C648.346 368.739 650.633 365.998 652.617 363.693C653.574 362.559 654.106 361.127 654.12 359.643C654.133 358.159 653.629 356.717 652.693 355.566Z" fill="#0152A8"/>
<path opacity="0.7" d="M652.693 355.566C644.687 345.776 637.385 335.431 630.844 324.607C629.257 321.873 627.751 319.089 626.327 316.254C625.514 314.647 624.74 313.041 623.984 311.415C622.991 309.834 622.222 308.123 621.697 306.331C619.429 282.385 627.631 264.751 619.807 245.53L588.659 257.702C588.659 257.702 591.305 291.948 597.353 312.512C601.133 325.231 609.601 336.231 617.784 346.418C620.336 349.593 622.793 352.863 625.344 356.057C627.896 359.251 630.466 361.84 632.904 364.846C636.59 369.4 637.799 373.766 635.021 379.134L634.549 379.984C633.755 381.383 637.459 382.971 639.803 379.984C643.583 375.108 643.054 375.411 646.342 371.253C648.346 368.739 650.633 365.998 652.617 363.693C653.574 362.559 654.106 361.127 654.12 359.643C654.133 358.159 653.629 356.717 652.693 355.566Z" fill="white"/>
<path opacity="0.3" d="M645.076 345.719C640.133 351.017 634.647 355.781 628.708 359.932C629.521 360.839 630.315 361.822 631.128 362.691C637.074 358.674 642.474 353.903 647.193 348.497L645.076 345.719Z" fill="#0152A8"/>
<path opacity="0.3" d="M652.693 355.566L652.466 355.301C651.011 356.97 650.165 359.081 650.066 361.292C649.944 362.809 650.19 364.333 650.784 365.734L652.579 363.598C653.518 362.476 654.041 361.065 654.062 359.602C654.083 358.139 653.599 356.714 652.693 355.566Z" fill="#0152A8"/>
<path d="M583.708 206.01C580.331 211.066 576.281 215.638 571.668 219.599C569.111 221.804 566.308 223.706 563.315 225.269C561.742 226.075 560.112 226.763 558.438 227.329L557.153 227.745L556.737 227.858L555.849 228.104C555.302 228.234 554.746 228.322 554.186 228.369C552.591 228.491 550.988 228.344 549.442 227.934C547.493 227.381 545.624 226.574 543.885 225.534C542.486 224.716 541.13 223.826 539.822 222.869C537.459 221.111 535.2 219.218 533.056 217.199C528.922 213.282 525.128 209.02 521.716 204.46C521.059 203.572 520.732 202.482 520.793 201.379C520.854 200.276 521.297 199.228 522.048 198.417C522.798 197.606 523.808 197.083 524.904 196.937C525.999 196.791 527.111 197.032 528.047 197.618H528.198C532.659 200.453 537.157 203.44 541.542 206.105C543.772 207.409 545.927 208.732 548.062 209.752C549.037 210.263 550.041 210.717 551.067 211.113C551.707 211.395 552.392 211.562 553.09 211.604C553.203 211.604 553.09 211.472 552.39 211.491C552.17 211.478 551.949 211.478 551.729 211.491L551.313 211.586L551.937 211.264C552.777 210.812 553.591 210.314 554.375 209.771C556.066 208.579 557.647 207.238 559.1 205.764C562.402 202.304 565.494 198.65 568.361 194.821C569.932 193.064 572.102 191.957 574.447 191.718C576.791 191.478 579.141 192.124 581.034 193.527C582.927 194.931 584.228 196.991 584.681 199.304C585.133 201.617 584.705 204.015 583.481 206.029L583.708 206.01Z" fill="#0152A8"/>
<path opacity="0.7" d="M583.708 206.01C580.331 211.066 576.281 215.638 571.668 219.599C569.111 221.804 566.308 223.706 563.315 225.269C561.742 226.075 560.112 226.763 558.438 227.329L557.153 227.745L556.737 227.858L555.849 228.104C555.302 228.234 554.746 228.322 554.186 228.369C552.591 228.491 550.988 228.344 549.442 227.934C547.493 227.381 545.624 226.574 543.885 225.534C542.486 224.716 541.13 223.826 539.822 222.869C537.459 221.111 535.2 219.218 533.056 217.199C528.922 213.282 525.128 209.02 521.716 204.46C521.059 203.572 520.732 202.482 520.793 201.379C520.854 200.276 521.297 199.228 522.048 198.417C522.798 197.606 523.808 197.083 524.904 196.937C525.999 196.791 527.111 197.032 528.047 197.618H528.198C532.659 200.453 537.157 203.44 541.542 206.105C543.772 207.409 545.927 208.732 548.062 209.752C549.037 210.263 550.041 210.717 551.067 211.113C551.707 211.395 552.392 211.562 553.09 211.604C553.203 211.604 553.09 211.472 552.39 211.491C552.17 211.478 551.949 211.478 551.729 211.491L551.313 211.586L551.937 211.264C552.777 210.812 553.591 210.314 554.375 209.771C556.066 208.579 557.647 207.238 559.1 205.764C562.402 202.304 565.494 198.65 568.361 194.821C569.932 193.064 572.102 191.957 574.447 191.718C576.791 191.478 579.141 192.124 581.034 193.527C582.927 194.931 584.228 196.991 584.681 199.304C585.133 201.617 584.705 204.015 583.481 206.029L583.708 206.01Z" fill="white"/>
<path d="M514.628 193.574L516.839 197.354C516.839 197.354 518.522 202.306 521.905 203.213L531.09 200.245L530.618 199.471C529.446 197.694 529.578 194.235 529.975 191.362C530.372 188.49 528.898 188.395 527.801 189.113C527.025 190.007 526.479 191.078 526.214 192.232C525.763 191.608 525.264 191.02 524.721 190.474L521.924 187.677C521.337 187.103 520.555 186.773 519.735 186.752C518.914 186.731 518.116 187.021 517.501 187.564L515.233 189.586C514.695 190.084 514.342 190.749 514.232 191.474C514.122 192.199 514.262 192.939 514.628 193.574Z" fill="#0152A8"/>
<path opacity="0.7" d="M514.628 193.574L516.839 197.354C516.839 197.354 518.522 202.306 521.905 203.213L531.09 200.245L530.618 199.471C529.446 197.694 529.578 194.235 529.975 191.362C530.372 188.49 528.898 188.395 527.801 189.113C527.025 190.007 526.479 191.078 526.214 192.232C525.763 191.608 525.264 191.02 524.721 190.474L521.924 187.677C521.337 187.103 520.555 186.773 519.735 186.752C518.914 186.731 518.116 187.021 517.501 187.564L515.233 189.586C514.695 190.084 514.342 190.749 514.232 191.474C514.122 192.199 514.262 192.939 514.628 193.574Z" fill="white"/>
<path d="M600.396 179.966C590.208 182.666 580.449 186.783 571.404 192.194C569.993 193.077 568.885 194.371 568.23 195.901C567.575 197.431 567.403 199.125 567.737 200.756C571.385 218.597 579.682 242.487 588.641 257.701L630.428 240.408C630.712 233.037 620.563 209.185 610.224 186.127C608.372 181.988 604.8 178.907 600.396 179.966Z" fill="#0152A8"/>
<path opacity="0.8" d="M600.396 179.966C590.208 182.666 580.449 186.783 571.404 192.194C569.993 193.077 568.885 194.371 568.23 195.901C567.575 197.431 567.403 199.125 567.737 200.756C571.385 218.597 579.682 242.487 588.641 257.701L630.428 240.408C630.712 233.037 620.563 209.185 610.224 186.127C608.372 181.988 604.8 178.907 600.396 179.966Z" fill="white"/>
<path opacity="0.3" d="M616.707 200.737L608.41 197.959C610.3 202.816 616.972 208.958 621.64 212.568C620.128 208.788 618.446 204.819 616.707 200.737Z" fill="#0152A8"/>
<path d="M597.656 161.255C594.197 154.678 586.732 151.37 577.773 152.107C570.213 152.75 563.522 160.461 564.316 164.619C565.11 168.777 571.46 170.554 572.67 171.99L567.435 175.77C566.815 176.218 566.291 176.786 565.897 177.441C565.502 178.096 565.244 178.825 565.138 179.582C565.032 180.34 565.08 181.111 565.28 181.849C565.48 182.587 565.827 183.277 566.301 183.878C568.512 186.675 571.423 189.548 573.105 191.665C587.582 191.287 598.298 185.768 602.173 180.457C600.718 173.729 601.02 167.794 597.656 161.255Z" fill="#0152A8"/>
<path opacity="0.8" d="M597.656 161.255C594.197 154.678 586.732 151.37 577.773 152.107C570.213 152.75 563.522 160.461 564.316 164.619C565.11 168.777 571.46 170.554 572.67 171.99L567.435 175.77C566.815 176.218 566.291 176.786 565.897 177.441C565.502 178.096 565.244 178.825 565.138 179.582C565.032 180.34 565.08 181.111 565.28 181.849C565.48 182.587 565.827 183.277 566.301 183.878C568.512 186.675 571.423 189.548 573.105 191.665C587.582 191.287 598.298 185.768 602.173 180.457C600.718 173.729 601.02 167.794 597.656 161.255Z" fill="white"/>
<path d="M590.549 165.337C591.577 167.973 591.801 170.854 591.191 173.617C590.582 176.38 589.167 178.9 587.125 180.858C585.084 182.817 582.508 184.127 579.722 184.622C576.937 185.116 574.067 184.774 571.476 183.639C568.885 182.503 566.689 180.624 565.165 178.241C563.641 175.857 562.858 173.075 562.915 170.246C562.972 167.418 563.867 164.67 565.485 162.349C567.104 160.029 569.374 158.241 572.009 157.21C575.545 155.832 579.484 155.914 582.96 157.438C586.437 158.962 589.166 161.803 590.549 165.337Z" fill="#263238"/>
<path d="M713.267 335.664C713.059 329.446 712.776 329.994 712.606 324.759C712.492 321.546 712.473 317.974 712.454 314.893C712.448 313.43 711.937 312.014 711.007 310.884C710.077 309.755 708.786 308.981 707.351 308.694C704.857 308.183 702.343 307.711 699.791 307.182C696.522 306.482 693.29 305.726 690.096 304.8C687.601 304.082 685.144 303.288 682.706 302.4C680.268 301.512 677.527 300.51 674.995 299.338C672.008 298.072 669.06 296.711 666.149 295.294C662.88 293.744 659.648 292.118 656.416 290.474C643.98 269.892 643.715 256.322 630.372 240.408L601.719 253.373C601.719 253.373 622.774 290.72 637.1 306.558C645.359 315.668 658.306 319.788 669.854 322.774C678.189 324.91 686.637 326.554 695.085 328.123C698.374 328.728 701.946 328.954 704.781 330.92C706.879 332.528 708.317 334.847 708.826 337.441C708.952 337.97 709.065 338.499 709.166 339.028C709.525 340.616 713.399 339.406 713.267 335.664Z" fill="#0152A8"/>
<path opacity="0.8" d="M713.267 335.664C713.059 329.446 712.776 329.994 712.606 324.759C712.492 321.546 712.473 317.974 712.454 314.893C712.448 313.43 711.937 312.014 711.007 310.884C710.077 309.755 708.786 308.981 707.351 308.694C704.857 308.183 702.343 307.711 699.791 307.182C696.522 306.482 693.29 305.726 690.096 304.8C687.601 304.082 685.144 303.288 682.706 302.4C680.268 301.512 677.527 300.51 674.995 299.338C672.008 298.072 669.06 296.711 666.149 295.294C662.88 293.744 659.648 292.118 656.416 290.474C643.98 269.892 643.715 256.322 630.372 240.408L601.719 253.373C601.719 253.373 622.774 290.72 637.1 306.558C645.359 315.668 658.306 319.788 669.854 322.774C678.189 324.91 686.637 326.554 695.085 328.123C698.374 328.728 701.946 328.954 704.781 330.92C706.879 332.528 708.317 334.847 708.826 337.441C708.952 337.97 709.065 338.499 709.166 339.028C709.525 340.616 713.399 339.406 713.267 335.664Z" fill="white"/>
<path opacity="0.3" d="M698.733 306.936C697.599 306.69 696.465 306.445 695.312 306.161C695.407 312.701 692.345 323.965 691.23 327.386L694.821 328.066C697.174 321.258 698.493 314.135 698.733 306.936Z" fill="#0152A8"/>
<path opacity="0.3" d="M712.53 314.893C712.525 313.433 712.016 312.019 711.09 310.89C710.164 309.76 708.877 308.985 707.446 308.694L705.556 308.335C705.86 310.483 706.959 312.439 708.637 313.816C709.716 314.813 711.009 315.55 712.417 315.97C712.53 315.63 712.53 315.252 712.53 314.893Z" fill="#0152A8"/>
<path d="M587.885 165.451C588.641 168.323 585.428 171.328 582.876 168.853C580.495 166.299 577.889 163.965 575.089 161.878C572.462 160.234 575.959 157.361 580.098 158.476C581.864 158.92 583.496 159.787 584.852 161.002C586.209 162.217 587.25 163.744 587.885 165.451Z" fill="white"/>
<path d="M588.093 256.775C586.77 257.267 589.189 259.535 589.189 259.535C589.189 259.535 615.649 250.482 631.714 241.164C631.753 240.6 631.656 240.035 631.433 239.515C631.209 238.996 630.865 238.537 630.429 238.178C616.679 245.172 602.545 251.381 588.093 256.775Z" fill="#0152A8"/>
<path opacity="0.5" d="M588.093 256.775C586.77 257.267 589.189 259.535 589.189 259.535C589.189 259.535 615.649 250.482 631.714 241.164C631.753 240.6 631.656 240.035 631.433 239.515C631.209 238.996 630.865 238.537 630.429 238.178C616.679 245.172 602.545 251.381 588.093 256.775Z" fill="white"/>
<path d="M607.559 178.718C612.776 181.364 617.671 184.143 622.679 187.223C625.118 188.773 627.537 190.342 629.937 192.043C632.337 193.744 634.719 195.483 637.119 197.448L638.007 198.185L639.122 199.206C639.787 199.801 640.418 200.432 641.012 201.096C641.617 201.758 642.128 202.4 642.619 202.986C643.11 203.572 643.64 204.271 644.074 204.876C645.835 207.306 647.463 209.829 648.95 212.436C651.88 217.491 654.407 222.767 656.51 228.218C656.899 229.247 656.919 230.38 656.567 231.423C656.215 232.466 655.513 233.354 654.58 233.938C653.646 234.522 652.54 234.764 651.448 234.624C650.356 234.484 649.347 233.97 648.591 233.169L648.497 233.056C644.717 229.03 641.069 224.797 637.403 220.847C633.736 216.896 630.013 212.89 626.932 211.132C622.642 208.467 617.86 205.802 613.116 203.194L598.828 195.256C596.612 194.083 594.953 192.078 594.216 189.682C593.479 187.286 593.724 184.695 594.896 182.48C596.069 180.264 598.074 178.605 600.47 177.868C602.867 177.131 605.457 177.375 607.673 178.548L607.559 178.718Z" fill="#0152A8"/>
<path opacity="0.8" d="M607.559 178.718C612.776 181.364 617.671 184.143 622.679 187.223C625.118 188.773 627.537 190.342 629.937 192.043C632.337 193.744 634.719 195.483 637.119 197.448L638.007 198.185L639.122 199.206C639.787 199.801 640.418 200.432 641.012 201.096C641.617 201.758 642.128 202.4 642.619 202.986C643.11 203.572 643.64 204.271 644.074 204.876C645.835 207.306 647.463 209.829 648.95 212.436C651.88 217.491 654.407 222.767 656.51 228.218C656.899 229.247 656.919 230.38 656.567 231.423C656.215 232.466 655.513 233.354 654.58 233.938C653.646 234.522 652.54 234.764 651.448 234.624C650.356 234.484 649.347 233.97 648.591 233.169L648.497 233.056C644.717 229.03 641.069 224.797 637.403 220.847C633.736 216.896 630.013 212.89 626.932 211.132C622.642 208.467 617.86 205.802 613.116 203.194L598.828 195.256C596.612 194.083 594.953 192.078 594.216 189.682C593.479 187.286 593.724 184.695 594.896 182.48C596.069 180.264 598.074 178.605 600.47 177.868C602.867 177.131 605.457 177.375 607.673 178.548L607.559 178.718Z" fill="white"/>
<path d="M660.99 237.649L659.383 233.623C659.383 233.623 658.495 228.482 655.301 227.046L645.851 228.539L646.172 229.37C647.042 231.26 646.38 234.719 645.529 237.478C644.679 240.238 646.115 240.597 647.325 240.049C648.005 239.746 648.667 238.518 649.385 237.214C649.737 237.871 650.135 238.502 650.576 239.104L652.901 242.298C653.386 242.96 654.104 243.413 654.911 243.568C655.717 243.722 656.552 243.565 657.248 243.13L659.818 241.485C660.419 241.074 660.863 240.469 661.076 239.772C661.289 239.075 661.259 238.326 660.99 237.649Z" fill="#0152A8"/>
<path opacity="0.8" d="M660.99 237.649L659.383 233.623C659.383 233.623 658.495 228.482 655.301 227.046L645.851 228.539L646.172 229.37C647.042 231.26 646.38 234.719 645.529 237.478C644.679 240.238 646.115 240.597 647.325 240.049C648.005 239.746 648.667 238.518 649.385 237.214C649.737 237.871 650.135 238.502 650.576 239.104L652.901 242.298C653.386 242.96 654.104 243.413 654.911 243.568C655.717 243.722 656.552 243.565 657.248 243.13L659.818 241.485C660.419 241.074 660.863 240.469 661.076 239.772C661.289 239.075 661.259 238.326 660.99 237.649Z" fill="white"/>
<path opacity="0.3" d="M599.584 200.453L597.278 200.642L583.122 234.814C583.896 234.869 584.673 234.806 585.428 234.625C585.428 234.625 603.874 227.745 609.45 225.175C605.707 217.444 599.584 200.453 599.584 200.453Z" fill="#0152A8"/>
<path d="M573.747 209.412C575.467 218.345 578.661 226.929 583.197 234.814C590.115 232.432 601.644 227.934 607.238 225.364C603.478 217.303 600.141 209.051 597.24 200.642C591.324 201.039 578.34 206.01 573.747 209.412Z" fill="white"/>
<path opacity="0.3" d="M587.79 216.802C587.514 217.726 586.97 218.548 586.226 219.163C585.483 219.777 584.574 220.158 583.614 220.256C582.655 220.354 581.687 220.166 580.835 219.714C579.983 219.262 579.283 218.568 578.826 217.719C578.368 216.869 578.172 215.904 578.264 214.943C578.355 213.983 578.729 213.071 579.339 212.324C579.949 211.576 580.766 211.026 581.689 210.743C582.611 210.46 583.596 210.458 584.52 210.735C585.758 211.107 586.798 211.954 587.411 213.092C588.024 214.229 588.16 215.564 587.79 216.802Z" fill="#0152A8"/>
<path opacity="0.6" d="M591.4 210.3C591.326 210.616 591.159 210.902 590.92 211.12C590.681 211.339 590.381 211.48 590.061 211.526C589.74 211.571 589.413 211.518 589.122 211.375C588.832 211.231 588.592 211.003 588.434 210.72C588.276 210.437 588.206 210.113 588.235 209.791C588.265 209.468 588.391 209.162 588.597 208.912C588.803 208.662 589.08 208.481 589.392 208.391C589.703 208.302 590.034 208.308 590.342 208.41C590.725 208.533 591.047 208.796 591.243 209.147C591.44 209.498 591.496 209.91 591.4 210.3Z" fill="#0152A8"/>
<path opacity="0.6" d="M595.634 208.656C595.589 208.875 595.5 209.083 595.37 209.265C595.241 209.448 595.075 209.602 594.883 209.716C594.691 209.831 594.477 209.905 594.255 209.932C594.033 209.959 593.808 209.94 593.594 209.875C593.38 209.81 593.182 209.702 593.012 209.556C592.842 209.41 592.705 209.23 592.609 209.028C592.513 208.826 592.46 208.607 592.453 208.383C592.447 208.159 592.487 207.937 592.572 207.73C592.632 207.53 592.732 207.344 592.864 207.182C592.997 207.021 593.16 206.887 593.344 206.789C593.529 206.69 593.731 206.629 593.939 206.609C594.147 206.589 594.356 206.61 594.556 206.672C594.961 206.794 595.301 207.071 595.502 207.443C595.704 207.814 595.751 208.25 595.634 208.656Z" fill="#0152A8"/>
<path opacity="0.5" d="M601.568 223.379L584.086 230.278L583.046 226.838L600.51 219.939L601.568 223.379Z" fill="#0152A8"/>
<path opacity="0.2" d="M505.121 486.051C505.081 497.057 504.018 508.034 501.946 518.843C499.716 528.557 496.251 535.664 491.551 540.162C489.362 542.335 486.763 544.051 483.904 545.209C481.045 546.368 477.985 546.945 474.9 546.909C465.186 546.909 457.771 541.611 452.655 531.014C451.756 529.111 450.992 527.147 450.368 525.136C439.564 534.415 429.504 544.526 420.279 555.376L410.243 567.208C415.644 572.682 421.876 577.268 428.709 580.797C440.477 586.883 455.925 589.932 475.052 589.945C478.416 589.945 481.666 589.85 484.823 589.661C496.394 572.539 505.97 554.149 513.362 534.851L541.428 461.67L505.121 486.051Z" fill="black"/>
<path d="M252.107 585.9L285.182 618.975L377.792 531.714C345.87 519.523 283.802 554.129 252.107 585.9Z" fill="#263238"/>
<path d="M367.454 701.19C356.889 690.606 334.379 668.115 334.379 668.115L421.64 575.505C433.755 607.352 399.149 669.476 367.454 701.19Z" fill="#263238"/>
<path d="M494.046 492.723L530.126 423.152L460.555 459.27C438.209 470.859 417.576 485.488 399.244 502.74L280.646 614.382L338.915 672.651L450.557 554.053C467.817 535.717 482.452 515.077 494.046 492.723Z" fill="#0152A8"/>
<path opacity="0.6" d="M494.046 492.723L530.126 423.152L460.555 459.27C438.209 470.859 417.576 485.488 399.244 502.74L280.646 614.382L338.915 672.651L450.557 554.053C467.817 535.717 482.452 515.077 494.046 492.723Z" fill="white"/>
<path d="M419.958 557.701C433.423 557.701 444.339 546.785 444.339 533.32C444.339 519.855 433.423 508.939 419.958 508.939C406.493 508.939 395.577 519.855 395.577 533.32C395.577 546.785 406.493 557.701 419.958 557.701Z" fill="white"/>
<path d="M419.958 548.988C428.611 548.988 435.626 541.973 435.626 533.32C435.626 524.667 428.611 517.652 419.958 517.652C411.305 517.652 404.29 524.667 404.29 533.32C404.29 541.973 411.305 548.988 419.958 548.988Z" fill="#0152A8"/>
<path opacity="0.3" d="M358.628 651.71L301.568 594.651L348.289 550.689L402.589 605.008L358.628 651.71Z" fill="#0152A8"/>
<path d="M265.016 638.102C222.302 641.561 208.146 668.909 203.307 705.254C200.85 723.794 199.754 742.562 184.199 753.411C183.264 754.047 182.559 754.969 182.191 756.039C181.824 757.109 181.812 758.269 182.159 759.346C182.506 760.423 183.193 761.358 184.116 762.012C185.039 762.667 186.149 763.004 187.28 762.974C244.623 761.179 271.366 733.112 274.73 721.394C273.847 727.52 272.269 733.525 270.024 739.292C269.612 740.31 269.531 741.432 269.794 742.499C270.056 743.565 270.648 744.521 271.486 745.231C272.324 745.941 273.364 746.369 274.459 746.453C275.554 746.537 276.648 746.273 277.584 745.7C293.668 735.626 313.853 717.066 315.195 686.958C303.364 670.194 265.016 638.102 265.016 638.102Z" fill="#0152A8"/>
<path opacity="0.2" d="M265.016 638.102C222.302 641.561 208.146 668.909 203.307 705.254C200.85 723.794 199.754 742.562 184.199 753.411C183.264 754.047 182.559 754.969 182.191 756.039C181.824 757.109 181.812 758.269 182.159 759.346C182.506 760.423 183.193 761.358 184.116 762.012C185.039 762.667 186.149 763.004 187.28 762.974C244.623 761.179 271.366 733.112 274.73 721.394C273.847 727.52 272.269 733.525 270.024 739.292C269.612 740.31 269.531 741.432 269.794 742.499C270.056 743.565 270.648 744.521 271.486 745.231C272.324 745.941 273.364 746.369 274.459 746.453C275.554 746.537 276.648 746.273 277.584 745.7C293.668 735.626 313.853 717.066 315.195 686.958C303.364 670.194 265.016 638.102 265.016 638.102Z" fill="white"/>
<path d="M321.829 699.867L253.411 631.449L289.85 623.568L329.711 663.428L321.829 699.867Z" fill="#0152A8"/>
</svg>
