<svg width="233" height="40" viewBox="0 0 233 40" fill="none" xmlns="http://www.w3.org/2000/svg">
<path d="M44.8972 6.54221V39.3078H51.3463V18.587L58.7358 32.4778H63.483L70.8726 18.587V39.3078H77.3217V6.54221H71.2757L61.199 25.4632L51.1671 6.54221H44.8972ZM81.8233 27.0784C81.8233 34.4621 86.7945 40 93.9153 40C98.349 40 102.962 37.7387 104.664 33.3546L99.0656 31.5086C97.9012 33.4469 96.1993 34.5544 93.9601 34.5544C90.5564 34.5544 88.6754 31.9701 88.1828 28.7397H105.156V27.1245C105.156 19.7407 100.812 14.249 93.6018 14.249C86.5257 14.249 81.8233 20.1561 81.8233 27.0784ZM93.6018 19.2331C96.6024 19.2331 98.3043 21.5405 98.7073 24.4017H88.2724C88.8098 21.5405 90.6012 19.2331 93.6018 19.2331ZM107.084 14.9413V20.1561H111.114V31.5086C111.114 36.7696 114.025 40 119.041 40C121.012 40 123.027 39.4923 124.729 38.3848L123.609 33.5392C122.534 34.0007 121.46 34.3698 120.295 34.3698C118.101 34.3698 117.384 32.7546 117.384 30.7241V20.1561H123.833V14.9413H117.384V6.63451H111.114V14.9413H107.084ZM135.548 40C138.235 40 141.101 38.8924 142.535 36.4465L142.714 39.3078H148.312V24.5402C148.312 18.1717 143.968 14.249 138.056 14.249C133.712 14.249 129.009 16.6488 127.979 21.3098L133.578 22.4635C134.249 20.5253 136.041 19.5561 137.966 19.5561C140.698 19.5561 142.221 21.4944 142.221 24.2171V25.6478C140.385 24.9555 138.817 24.5863 136.847 24.5863C132.144 24.5863 127.128 26.9399 127.128 32.3855C127.128 37.2311 131.249 40 135.548 40ZM133.309 32.0624C133.309 29.6165 135.951 28.9243 137.877 28.9243C138.638 28.9243 139.355 29.0166 140.116 29.155C140.878 29.3396 141.549 29.5704 142.221 29.8473V30.078C142.221 33.0777 139.803 35.0159 137.071 35.0159C135.324 35.0159 133.309 34.1391 133.309 32.0624ZM153.308 4.88086V39.3078H159.085L159.265 36.1235C160.922 38.7078 163.609 40 166.565 40C173.506 40 177.806 33.5853 177.806 26.9861C177.806 20.3868 173.641 14.249 166.923 14.249C163.967 14.249 161.37 15.5873 159.578 18.0332V4.88086H153.308ZM165.445 20.0638C169.252 20.0638 171.401 23.5249 171.401 27.1245C171.401 30.7703 169.162 34.1853 165.445 34.1853C161.683 34.1853 159.489 30.678 159.489 27.1245C159.489 23.4788 161.728 20.0638 165.445 20.0638ZM181.911 14.9413V39.3078H188.181V25.3247C188.181 22.3251 190.107 20.0638 193.018 20.0638C196.108 20.0638 197.228 22.6942 197.228 25.5093V39.3078H203.498V24.6786C203.498 19.0023 200.676 14.249 194.854 14.249C191.988 14.249 189.346 15.495 187.868 18.0794L187.689 14.9413H181.911ZM208.502 4.88086V39.3078H214.28L214.459 36.1235C216.116 38.7078 218.803 40 221.759 40C228.701 40 233 33.5853 233 26.9861C233 20.3868 228.835 14.249 222.117 14.249C219.161 14.249 216.564 15.5873 214.772 18.0332V4.88086H208.502ZM220.639 20.0638C224.446 20.0638 226.596 23.5249 226.596 27.1245C226.596 30.7703 224.356 34.1853 220.639 34.1853C216.877 34.1853 214.683 30.678 214.683 27.1245C214.683 23.4788 216.922 20.0638 220.639 20.0638Z" fill="#F7F7F7"/>
<path d="M22.3926 6.50757H19.5935V7.94971H22.3926V6.50757Z" fill="#FEF9F9"/>
<path d="M24.4919 9.39209H17.4942V10.8342H24.4919V9.39209Z" fill="#FEF9F9"/>
<path d="M9.09699 19.4868H7.69745V20.929H9.09699V19.4868Z" fill="#FEF9F9"/>
<path d="M11.8961 19.4868H10.4965V20.929H11.8961V19.4868Z" fill="#FEF9F9"/>
<path d="M14.6952 19.4868H13.2956V20.929H14.6952V19.4868Z" fill="#FEF9F9"/>
<path d="M17.4942 19.4868H16.0947V20.929H17.4942V19.4868Z" fill="#FEF9F9"/>
<path d="M20.2933 19.4868H18.8938V20.929H20.2933V19.4868Z" fill="#FEF9F9"/>
<path d="M23.0924 19.4868H21.6928V20.929H23.0924V19.4868Z" fill="#FEF9F9"/>
<path d="M25.8915 19.4868H24.4919V20.929H25.8915V19.4868Z" fill="#FEF9F9"/>
<path d="M28.6905 19.4868H27.291V20.929H28.6905V19.4868Z" fill="#FEF9F9"/>
<path d="M31.4896 19.4868H30.0901V20.929H31.4896V19.4868Z" fill="#FEF9F9"/>
<path d="M34.2887 19.4868H32.8892V20.929H34.2887V19.4868Z" fill="#FEF9F9"/>
<path d="M15.3949 29.582H13.9954V31.0242H15.3949V29.582Z" fill="#FEF9F9"/>
<path d="M22.3926 24.5343V33.1872C22.3926 33.6198 22.6725 33.9082 23.0924 33.9082H32.8891C33.309 33.9082 33.5889 33.6198 33.5889 33.1872V24.5343C33.5889 24.1017 33.309 23.8132 32.8891 23.8132H23.0924C22.6725 23.8132 22.3926 24.1024 22.3926 24.5343ZM23.7921 29.5818H27.291V32.4661H23.7921V29.5818ZM28.6905 32.4661V29.5818H32.1894V32.4661H28.6905ZM32.1894 28.1397H28.6905V25.2554H32.1894V28.1397ZM27.291 25.2554V28.1397H23.7921V25.2554H27.291Z" fill="#FEF9F9"/>
<path d="M39.1871 38.2349V36.0717C39.1871 35.639 38.9072 35.3506 38.4873 35.3506H37.0878V18.0448H39.1871C39.6069 18.0448 39.8868 17.7564 39.8868 17.3238V14.6558C39.8868 14.4395 39.8169 14.2232 39.6069 14.0789L34.2887 10.0409V1.46017C34.2887 1.02753 34.0088 0.739099 33.5889 0.739099H27.9908C27.5709 0.739099 27.291 1.02753 27.291 1.46017V4.63289L21.4129 0.162241C21.133 -0.0540804 20.8531 -0.0540804 20.5732 0.162241L2.86905 13.7184H2.79908V13.7905L2.37922 14.0789C2.16929 14.2232 2.09931 14.4395 2.09931 14.6558V17.3238C2.09931 17.7564 2.37921 18.0448 2.79908 18.0448H4.89838V35.3506H3.49885C3.07898 35.3506 2.79908 35.639 2.79908 36.0717V38.2349H0V39.677H3.49885H38.4873H41.9861V38.2349H39.1871ZM32.8891 2.18124V2.90232H28.6905V2.18124H32.8891ZM28.6905 4.34446H32.8891V8.95933L28.6905 5.7145V4.34446ZM3.49885 15.1605H31.4896V13.7184H5.17829L20.9931 1.60511L38.4873 15.0171V16.6034H36.388H5.59815H3.49885V15.1605ZM6.29792 18.0448H35.6882V35.3506H18.194V25.2556H19.5935V23.8134H17.4942H9.79677H7.69746V25.2556H9.097V35.3506H6.29792V18.0448ZM10.4965 25.2556H16.7945V35.3506H10.4965V25.2556ZM4.19861 38.2349V36.7927H5.59815H9.79677H17.4942H36.388H37.7875V38.2349H4.19861Z" fill="#F7F7F7"/>
</svg>
