<svg width="233" height="38" viewBox="0 0 233 38" fill="none" xmlns="http://www.w3.org/2000/svg">
<g filter="url(#filter0_i_2_2)">
<path d="M44.8972 6.66374V36.6988H51.3463V17.7048L58.7358 30.438H63.483L70.8726 17.7048V36.6988H77.3217V6.66374H71.2757L61.199 24.0079L51.1671 6.66374H44.8972ZM81.8233 25.4885C81.8233 32.257 86.7945 37.3334 93.9153 37.3334C98.349 37.3334 102.962 35.2605 104.664 31.2417L99.0656 29.5496C97.9012 31.3263 96.1993 32.3416 93.9601 32.3416C90.5564 32.3416 88.6754 29.9727 88.1828 27.0115H105.156V25.5308C105.156 18.7624 100.812 13.7283 93.6018 13.7283C86.5257 13.7283 81.8233 19.1431 81.8233 25.4885ZM93.6018 18.2971C96.6024 18.2971 98.3043 20.4122 98.7073 23.035H88.2724C88.8098 20.4122 90.6012 18.2971 93.6018 18.2971ZM107.084 14.3629V19.1431H111.114V29.5496C111.114 34.3722 114.025 37.3334 119.041 37.3334C121.012 37.3334 123.027 36.868 124.729 35.8528L123.609 31.411C122.534 31.834 121.46 32.1724 120.295 32.1724C118.101 32.1724 117.384 30.6918 117.384 28.8305V19.1431H123.833V14.3629H117.384V6.74835H111.114V14.3629H107.084ZM135.548 37.3334C138.235 37.3334 141.101 36.3181 142.535 34.076L142.714 36.6988H148.312V23.1619C148.312 17.3241 143.968 13.7283 138.056 13.7283C133.712 13.7283 129.009 15.9281 127.979 20.2007L133.578 21.2583C134.249 19.4815 136.041 18.5932 137.966 18.5932C140.698 18.5932 142.221 20.3699 142.221 22.8658V24.1772C140.385 23.5426 138.817 23.2042 136.847 23.2042C132.144 23.2042 127.128 25.3616 127.128 30.3534C127.128 34.7952 131.249 37.3334 135.548 37.3334ZM133.309 30.0573C133.309 27.8152 135.951 27.1807 137.877 27.1807C138.638 27.1807 139.355 27.2653 140.116 27.3922C140.878 27.5614 141.549 27.7729 142.221 28.0267V28.2382C142.221 30.9879 139.803 32.7646 137.071 32.7646C135.324 32.7646 133.309 31.9609 133.309 30.0573ZM153.308 5.14084V36.6988H159.085L159.265 33.7799C160.922 36.1489 163.609 37.3334 166.565 37.3334C173.506 37.3334 177.806 31.4533 177.806 25.4039C177.806 19.3546 173.641 13.7283 166.923 13.7283C163.967 13.7283 161.37 14.9551 159.578 17.1972V5.14084H153.308ZM165.445 19.0585C169.252 19.0585 171.401 22.2312 171.401 25.5308C171.401 28.8728 169.162 32.0032 165.445 32.0032C161.683 32.0032 159.489 28.7882 159.489 25.5308C159.489 22.1889 161.728 19.0585 165.445 19.0585ZM181.911 14.3629V36.6988H188.181V23.881C188.181 21.1313 190.107 19.0585 193.018 19.0585C196.108 19.0585 197.228 21.4698 197.228 24.0502V36.6988H203.498V23.2888C203.498 18.0855 200.676 13.7283 194.854 13.7283C191.988 13.7283 189.346 14.8705 187.868 17.2395L187.689 14.3629H181.911ZM208.502 5.14084V36.6988H214.28L214.459 33.7799C216.116 36.1489 218.803 37.3334 221.759 37.3334C228.701 37.3334 233 31.4533 233 25.4039C233 19.3546 228.835 13.7283 222.117 13.7283C219.161 13.7283 216.564 14.9551 214.772 17.1972V5.14084H208.502ZM220.639 19.0585C224.446 19.0585 226.596 22.2312 226.596 25.5308C226.596 28.8728 224.356 32.0032 220.639 32.0032C216.877 32.0032 214.683 28.7882 214.683 25.5308C214.683 22.1889 216.922 19.0585 220.639 19.0585Z" fill="url(#paint0_linear_2_2)"/>
<path d="M22.3926 6.63206H19.5935V7.95403H22.3926V6.63206Z" fill="url(#paint1_linear_2_2)"/>
<path d="M24.4919 9.276H17.4942V10.598H24.4919V9.276Z" fill="url(#paint2_linear_2_2)"/>
<path d="M9.09698 18.5298H7.69745V19.8517H9.09698V18.5298Z" fill="url(#paint3_linear_2_2)"/>
<path d="M11.8961 18.5298H10.4965V19.8517H11.8961V18.5298Z" fill="url(#paint4_linear_2_2)"/>
<path d="M14.6952 18.5298H13.2956V19.8517H14.6952V18.5298Z" fill="url(#paint5_linear_2_2)"/>
<path d="M17.4942 18.5298H16.0947V19.8517H17.4942V18.5298Z" fill="url(#paint6_linear_2_2)"/>
<path d="M20.2933 18.5298H18.8938V19.8517H20.2933V18.5298Z" fill="url(#paint7_linear_2_2)"/>
<path d="M23.0924 18.5298H21.6928V19.8517H23.0924V18.5298Z" fill="url(#paint8_linear_2_2)"/>
<path d="M25.8914 18.5298H24.4919V19.8517H25.8914V18.5298Z" fill="url(#paint9_linear_2_2)"/>
<path d="M28.6905 18.5298H27.291V19.8517H28.6905V18.5298Z" fill="url(#paint10_linear_2_2)"/>
<path d="M31.4896 18.5298H30.0901V19.8517H31.4896V18.5298Z" fill="url(#paint11_linear_2_2)"/>
<path d="M34.2887 18.5298H32.8892V19.8517H34.2887V18.5298Z" fill="url(#paint12_linear_2_2)"/>
<path d="M15.3949 27.7835H13.9954V29.1055H15.3949V27.7835Z" fill="url(#paint13_linear_2_2)"/>
<path d="M22.3926 23.1566V31.0884C22.3926 31.485 22.6725 31.7494 23.0924 31.7494H32.8891C33.309 31.7494 33.5889 31.485 33.5889 31.0884V23.1566C33.5889 22.76 33.309 22.4956 32.8891 22.4956H23.0924C22.6725 22.4956 22.3926 22.7607 22.3926 23.1566ZM23.7921 27.7835H27.291V30.4274H23.7921V27.7835ZM28.6905 30.4274V27.7835H32.1894V30.4274H28.6905ZM32.1894 26.4615H28.6905V23.8176H32.1894V26.4615ZM27.291 23.8176V26.4615H23.7921V23.8176H27.291Z" fill="url(#paint14_linear_2_2)"/>
<path d="M39.1871 35.7153V33.7323C39.1871 33.3358 38.9072 33.0714 38.4873 33.0714H37.0878V17.2078H39.1871C39.6069 17.2078 39.8868 16.9434 39.8868 16.5468V14.1011C39.8868 13.9028 39.8169 13.7045 39.6069 13.5724L34.2887 9.87085V2.00515C34.2887 1.60856 34.0088 1.34416 33.5889 1.34416H27.9908C27.5709 1.34416 27.291 1.60856 27.291 2.00515V4.91347L21.4129 0.815378C21.133 0.617083 20.8531 0.617083 20.5732 0.815378L2.86905 13.2419H2.79908V13.308L2.37922 13.5724C2.16929 13.7045 2.09931 13.9028 2.09931 14.1011V16.5468C2.09931 16.9434 2.37921 17.2078 2.79908 17.2078H4.89838V33.0714H3.49885C3.07898 33.0714 2.79908 33.3358 2.79908 33.7323V35.7153H0V37.0373H3.49885H38.4873H41.9861V35.7153H39.1871ZM32.8891 2.66613V3.32711H28.6905V2.66613H32.8891ZM28.6905 4.64908H32.8891V8.87937L28.6905 5.90495V4.64908ZM3.49885 14.5638H31.4896V13.2419H5.17829L20.9931 2.138L38.4873 14.4323V15.8865H36.388H5.59815H3.49885V14.5638ZM6.29792 17.2078H35.6882V33.0714H18.194V23.8176H19.5935V22.4956H17.4942H9.79677H7.69746V23.8176H9.097V33.0714H6.29792V17.2078ZM10.4965 23.8176H16.7945V33.0714H10.4965V23.8176ZM4.19861 35.7153V34.3933H5.59815H9.79677H17.4942H36.388H37.7875V35.7153H4.19861Z" fill="url(#paint15_linear_2_2)"/>
</g>
<defs>
<filter id="filter0_i_2_2" x="0" y="0.666656" width="237" height="40.6667" filterUnits="userSpaceOnUse" color-interpolation-filters="sRGB">
<feFlood flood-opacity="0" result="BackgroundImageFix"/>
<feBlend mode="normal" in="SourceGraphic" in2="BackgroundImageFix" result="shape"/>
<feColorMatrix in="SourceAlpha" type="matrix" values="0 0 0 0 0 0 0 0 0 0 0 0 0 0 0 0 0 0 127 0" result="hardAlpha"/>
<feOffset dx="4" dy="4"/>
<feGaussianBlur stdDeviation="22"/>
<feComposite in2="hardAlpha" operator="arithmetic" k2="-1" k3="1"/>
<feColorMatrix type="matrix" values="0 0 0 0 0.376471 0 0 0 0 0.376471 0 0 0 0 0.376471 0 0 0 0.15 0"/>
<feBlend mode="normal" in2="shape" result="effect1_innerShadow_2_2"/>
</filter>
<linearGradient id="paint0_linear_2_2" x1="79.5869" y1="8.57472" x2="192.672" y2="25.566" gradientUnits="userSpaceOnUse">
<stop stop-color="#DC3E88"/>
<stop offset="0.418735" stop-color="#B840AE"/>
<stop offset="1" stop-color="#843FE8"/>
</linearGradient>
<linearGradient id="paint1_linear_2_2" x1="20.1097" y1="6.77307" x2="21.8254" y2="6.86649" gradientUnits="userSpaceOnUse">
<stop stop-color="#DC3E88"/>
<stop offset="0.418735" stop-color="#B840AE"/>
<stop offset="1" stop-color="#843FE8"/>
</linearGradient>
<linearGradient id="paint2_linear_2_2" x1="18.7847" y1="9.41701" x2="23.0084" y2="9.99192" gradientUnits="userSpaceOnUse">
<stop stop-color="#DC3E88"/>
<stop offset="0.418735" stop-color="#B840AE"/>
<stop offset="1" stop-color="#843FE8"/>
</linearGradient>
<linearGradient id="paint3_linear_2_2" x1="7.95555" y1="18.6708" x2="8.81529" y2="18.6942" gradientUnits="userSpaceOnUse">
<stop stop-color="#DC3E88"/>
<stop offset="0.418735" stop-color="#B840AE"/>
<stop offset="1" stop-color="#843FE8"/>
</linearGradient>
<linearGradient id="paint4_linear_2_2" x1="10.7546" y1="18.6708" x2="11.6144" y2="18.6942" gradientUnits="userSpaceOnUse">
<stop stop-color="#DC3E88"/>
<stop offset="0.418735" stop-color="#B840AE"/>
<stop offset="1" stop-color="#843FE8"/>
</linearGradient>
<linearGradient id="paint5_linear_2_2" x1="13.5537" y1="18.6708" x2="14.4135" y2="18.6942" gradientUnits="userSpaceOnUse">
<stop stop-color="#DC3E88"/>
<stop offset="0.418735" stop-color="#B840AE"/>
<stop offset="1" stop-color="#843FE8"/>
</linearGradient>
<linearGradient id="paint6_linear_2_2" x1="16.3528" y1="18.6708" x2="17.2125" y2="18.6942" gradientUnits="userSpaceOnUse">
<stop stop-color="#DC3E88"/>
<stop offset="0.418735" stop-color="#B840AE"/>
<stop offset="1" stop-color="#843FE8"/>
</linearGradient>
<linearGradient id="paint7_linear_2_2" x1="19.1519" y1="18.6708" x2="20.0116" y2="18.6942" gradientUnits="userSpaceOnUse">
<stop stop-color="#DC3E88"/>
<stop offset="0.418735" stop-color="#B840AE"/>
<stop offset="1" stop-color="#843FE8"/>
</linearGradient>
<linearGradient id="paint8_linear_2_2" x1="21.9509" y1="18.6708" x2="22.8107" y2="18.6942" gradientUnits="userSpaceOnUse">
<stop stop-color="#DC3E88"/>
<stop offset="0.418735" stop-color="#B840AE"/>
<stop offset="1" stop-color="#843FE8"/>
</linearGradient>
<linearGradient id="paint9_linear_2_2" x1="24.75" y1="18.6708" x2="25.6098" y2="18.6942" gradientUnits="userSpaceOnUse">
<stop stop-color="#DC3E88"/>
<stop offset="0.418735" stop-color="#B840AE"/>
<stop offset="1" stop-color="#843FE8"/>
</linearGradient>
<linearGradient id="paint10_linear_2_2" x1="27.5491" y1="18.6708" x2="28.4088" y2="18.6942" gradientUnits="userSpaceOnUse">
<stop stop-color="#DC3E88"/>
<stop offset="0.418735" stop-color="#B840AE"/>
<stop offset="1" stop-color="#843FE8"/>
</linearGradient>
<linearGradient id="paint11_linear_2_2" x1="30.3482" y1="18.6708" x2="31.2079" y2="18.6942" gradientUnits="userSpaceOnUse">
<stop stop-color="#DC3E88"/>
<stop offset="0.418735" stop-color="#B840AE"/>
<stop offset="1" stop-color="#843FE8"/>
</linearGradient>
<linearGradient id="paint12_linear_2_2" x1="33.1473" y1="18.6708" x2="34.007" y2="18.6942" gradientUnits="userSpaceOnUse">
<stop stop-color="#DC3E88"/>
<stop offset="0.418735" stop-color="#B840AE"/>
<stop offset="1" stop-color="#843FE8"/>
</linearGradient>
<linearGradient id="paint13_linear_2_2" x1="14.2535" y1="27.9245" x2="15.1132" y2="27.9479" gradientUnits="userSpaceOnUse">
<stop stop-color="#DC3E88"/>
<stop offset="0.418735" stop-color="#B840AE"/>
<stop offset="1" stop-color="#843FE8"/>
</linearGradient>
<linearGradient id="paint14_linear_2_2" x1="24.4574" y1="23.4827" x2="31.3338" y2="23.6967" gradientUnits="userSpaceOnUse">
<stop stop-color="#DC3E88"/>
<stop offset="0.418735" stop-color="#B840AE"/>
<stop offset="1" stop-color="#843FE8"/>
</linearGradient>
<linearGradient id="paint15_linear_2_2" x1="7.74304" y1="4.5462" x2="33.5317" y2="5.31174" gradientUnits="userSpaceOnUse">
<stop stop-color="#DC3E88"/>
<stop offset="0.418735" stop-color="#B840AE"/>
<stop offset="1" stop-color="#843FE8"/>
</linearGradient>
</defs>
</svg>
