<svg width="30" height="30" viewBox="0 0 30 30" fill="none" xmlns="http://www.w3.org/2000/svg">
<path d="M6.25 6.5625C5.73223 6.5625 5.3125 6.98223 5.3125 7.5C5.3125 8.01777 5.73223 8.4375 6.25 8.4375H23.75C24.2678 8.4375 24.6875 8.01777 24.6875 7.5C24.6875 6.98223 24.2678 6.5625 23.75 6.5625H6.25Z" fill="#353535"/>
<path d="M6.25 14.0625C5.73223 14.0625 5.3125 14.4822 5.3125 15C5.3125 15.5178 5.73223 15.9375 6.25 15.9375H13.75C14.2678 15.9375 14.6875 15.5178 14.6875 15C14.6875 14.4822 14.2678 14.0625 13.75 14.0625H6.25Z" fill="#353535"/>
<path d="M6.25 21.5625C5.73223 21.5625 5.3125 21.9822 5.3125 22.5C5.3125 23.0178 5.73223 23.4375 6.25 23.4375H23.75C24.2678 23.4375 24.6875 23.0178 24.6875 22.5C24.6875 21.9822 24.2678 21.5625 23.75 21.5625H6.25Z" fill="#353535"/>
</svg>
