<svg width="18" height="18" viewBox="0 0 18 18" fill="none" xmlns="http://www.w3.org/2000/svg">
<path d="M18 3.98147C17.3229 4.27678 16.6068 4.47305 15.8737 4.56422C16.6463 4.10593 17.2238 3.38023 17.4971 2.52459C16.7738 2.9536 15.9824 3.25571 15.1571 3.41785C14.6511 2.8776 13.9944 2.502 13.2722 2.33986C12.55 2.17772 11.7957 2.23653 11.1073 2.50865C10.419 2.78076 9.82836 3.25361 9.41223 3.86575C8.9961 4.47789 8.77368 5.20103 8.77387 5.94122C8.77387 6.23372 8.79862 6.51497 8.85938 6.78272C7.39134 6.71075 5.95503 6.32974 4.64434 5.6646C3.33365 4.99947 2.17811 4.06519 1.25325 2.92284C0.779422 3.73494 0.632935 4.69709 0.843619 5.6134C1.0543 6.52971 1.60631 7.33126 2.38725 7.85485C1.8031 7.83918 1.23128 7.6833 0.72 7.40034V7.44085C0.720979 8.29295 1.0155 9.11871 1.55398 9.77911C2.09247 10.4395 2.84203 10.8942 3.6765 11.0667C3.36081 11.1499 3.03546 11.1908 2.709 11.1882C2.47454 11.1924 2.24031 11.1713 2.01038 11.1252C2.24881 11.8576 2.70843 12.4981 3.32594 12.9585C3.94346 13.4188 4.68851 13.6765 5.4585 13.6958C4.15231 14.7174 2.54135 15.2715 0.883125 15.2697C0.5805 15.2697 0.29025 15.2562 0 15.2191C1.68737 16.3065 3.65364 16.8816 5.661 16.8751C12.4515 16.8751 16.164 11.2501 16.164 6.37434C16.164 6.21122 16.1584 6.05372 16.1505 5.89734C16.8783 5.37645 17.5051 4.72721 18 3.98147Z" fill="#F7F7F7"/>
</svg>
